<?xml version="1.0" encoding="utf-8"?>
<!-- Generator: Adobe Illustrator 23.0.2, SVG Export Plug-In . SVG Version: 6.00 Build 0)  -->
<svg version="1.1" id="Layer_1" xmlns="http://www.w3.org/2000/svg" xmlns:xlink="http://www.w3.org/1999/xlink" x="0px" y="0px"
	 viewBox="0 0 432.3 107.1" style="enable-background:new 0 0 432.3 107.1;" xml:space="preserve">
<g>
	<path d="M20.8,14.8H7.7V3h39.7v11.8H34.3v66.9H20.8V14.8z"/>
	<path d="M55.4,22.1c0-11.1,6.5-20.2,20.7-20.2c14.2,0,20.7,9,20.7,20.2v40.6c0,11.1-6.5,20.2-20.7,20.2c-14.2,0-20.7-9.1-20.7-20.2
		V22.1z M68.9,62.3c0,5.9,1.7,8.7,7.2,8.7c5.5,0,7.2-2.8,7.2-8.7V22.4c0-5.9-1.7-8.7-7.2-8.7c-5.4,0-7.2,2.8-7.2,8.7V62.3z"/>
	<path d="M109.9,22.1c0-11.1,6.5-20.2,20.7-20.2c14.2,0,20.7,9,20.7,20.2v40.6c0,11.1-6.5,20.2-20.7,20.2
		c-14.2,0-20.7-9.1-20.7-20.2V22.1z M123.4,62.3c0,5.9,1.7,8.7,7.2,8.7c5.4,0,7.2-2.8,7.2-8.7V22.4c0-5.9-1.7-8.7-7.2-8.7
		c-5.5,0-7.2,2.8-7.2,8.7V62.3z"/>
	<path d="M163.7,81.7V3h13.5v66.9h21.3v11.8H163.7z"/>
	<path d="M220.3,81.7h-13.5V3h19c15.2,0,22.9,6.4,22.9,23.2c0,12.6-4.9,17.8-9.5,19.8l11.5,35.7h-13.7l-9.6-32.6
		c-1.7,0.2-4.6,0.3-7,0.3V81.7z M220.3,38.3h4.8c7.3,0,10-2.7,10-12.1c0-9.4-2.7-12.1-10-12.1h-4.8V38.3z"/>
	<path d="M261.3,22.1c0-11.1,6.5-20.2,20.7-20.2c14.2,0,20.7,9,20.7,20.2v40.6c0,11.1-6.5,20.2-20.7,20.2
		c-14.2,0-20.7-9.1-20.7-20.2V22.1z M274.8,62.3c0,5.9,1.7,8.7,7.2,8.7c5.5,0,7.2-2.8,7.2-8.7V22.4c0-5.9-1.8-8.7-7.2-8.7
		c-5.4,0-7.2,2.8-7.2,8.7V62.3z"/>
	<path d="M315.8,22.1c0-11.1,6.5-20.2,20.7-20.2c14.2,0,20.7,9,20.7,20.2v40.6c0,11.1-6.5,20.2-20.7,20.2
		c-14.2,0-20.7-9.1-20.7-20.2V22.1z M329.3,62.3c0,5.9,1.7,8.7,7.2,8.7c5.5,0,7.2-2.8,7.2-8.7V22.4c0-5.9-1.7-8.7-7.2-8.7
		c-5.5,0-7.2,2.8-7.2,8.7V62.3z"/>
	<path d="M424.5,3v78.7h-11.8V20.2h-0.2l-12.2,61.5h-6.5l-12.2-61.5h-0.2v61.5h-11.8V3h17.8l9.6,46h0.2l9.6-46H424.5z"/>
</g>
<rect x="20.5" y="93.7" width="404.1" height="11.6"/>
</svg>
