<?xml version="1.0" encoding="UTF-8"?>
<svg width="85px" height="87px" viewBox="0 0 85 87" version="1.1" xmlns="http://www.w3.org/2000/svg" xmlns:xlink="http://www.w3.org/1999/xlink">
    <!-- Generator: Sketch 53.2 (72643) - https://sketchapp.com -->
    <title>Shape</title>
    <desc>Created with Sketch.</desc>
    <g id="Page-1" stroke="none" stroke-width="1" fill="none" fill-rule="evenodd">
        <g id="Home" transform="translate(-455.000000, -5119.000000)" fill="#000000" fill-rule="nonzero">
            <g id="Section:-Academy" transform="translate(0.000000, 5019.000000)">
                <g id="Group-12" transform="translate(455.000000, 100.000000)">
                    <path d="M42.499508,0 C19.0296305,0 0,19.4776119 0,43.5 C0,67.5223881 19.0296305,87 42.499508,87 C65.9693856,87 84.999016,67.5223881 84.999016,43.5 C85.1575963,19.4776119 66.1279658,0 42.499508,0 L42.499508,0 Z M56.8392857,72 L30,72 L30,63 L57,63 L57,72 L56.8392857,72 Z M57,23.5373134 L48.1077844,23.5373134 L48.1077844,59 L38.8922156,59 L38.8922156,23.5373134 L30,23.5373134 L30,15 L38.8922156,15 L48.1077844,15 L57,15 L57,23.5373134 Z" id="Shape"></path>
                </g>
            </g>
        </g>
    </g>
</svg>